# xmcd
# 
# Track frame offsets:
#     150
#     23609
#     37506
#     54040
#     81747
#     99841
#     115700
#     126546
#     140718
#     153276
#     180382
#     194772
#     210999
#     234622
#     252894
#     265257
# 
# Disc length: 3749
# 
# Revision: 5
# Processed by: cddbd v1.5.2PL0 Copyright (c) Steve Scherf et al.
# Submitted via: BonkEnc v1.0.8
# 
DISCID=cf0ea310
DTITLE=Various Artist - Dixieland-Jazz CD 1
DYEAR=2005
DGENRE=Dixieland Jazz
TTITLE0=Chris Barber - Ice Cream
TTITLE1=Rod Mason - Bugle Boy March
TTITLE2=Mr. Acker Bilk - Da DA Da Strain
TTITLE3=Ken Coyler - Under the Bamboo Tree
TTITLE4=Kansas City Stompers - Muskrat Ramble
TTITLE5=Luis Amstrong - High Society
TTITLE6=New Orleons Rhythm Kings - Tiger Rag
TTITLE7=Eddie Condon and his Dixieland Band - Louisiana
TTITLE8=Johnny Dodd`s Black Bottom Stompers - New Orleans Stomp
TTITLE9=Kid Ory`s Creole Jazz Band - Eh, la Bass
TTITLE10=Mississippi Stompers - French Quarter Rag
TTITLE11=Dutch Swing College Band - Sheik of Araby
TTITLE12=St.Louis Ragtime Band - Basin Street Blues
TTITLE13=Fatty George and Band - I can`t give you anything but Love
TTITLE14=New Orleons Jazz Band - Bei mir bist du schön
TTITLE15=Chris Barber - Down by the River Side
EXTD=
EXTT0=
EXTT1=
EXTT2=
EXTT3=
EXTT4=
EXTT5=
EXTT6=
EXTT7=
EXTT8=
EXTT9=
EXTT10=
EXTT11=
EXTT12=
EXTT13=
EXTT14=
EXTT15=
PLAYORDER=
